<svg xmlns="http://www.w3.org/2000/svg" viewBox="0 0 128 128" width="128" height="128">
  <defs><clipPath id="b"><rect x="4" y="4" width="120" height="120" rx="14" ry="14"/></clipPath></defs>
  <rect x="4" y="4" width="120" height="120" rx="14" ry="14" fill="#FFFFFF"/>
  <g clip-path="url(#b)">
    <polygon points="78.2,117.5 55.6,130.5 36.5,142.1 59.1,129.1" fill="#007282" stroke="#192a42" stroke-width="0.6" stroke-linejoin="round"/>
    <polygon points="86.2,144.7 102.8,131.7 78.2,117.5 59.1,129.1" fill="#00dcfa" stroke="#192a42" stroke-width="0.6" stroke-linejoin="round"/>
    <polygon points="63.6,157.7 86.2,144.7 59.1,129.1 36.5,142.1" fill="#004d57" stroke="#192a42" stroke-width="0.6" stroke-linejoin="round"/>
    <polygon points="93.8,103.9 71.2,116.9 55.6,130.5 78.2,117.5" fill="#007282" stroke="#192a42" stroke-width="0.6" stroke-linejoin="round"/>
    <polygon points="102.8,131.7 115.9,116.7 93.8,103.9 78.2,117.5" fill="#00dcfa" stroke="#192a42" stroke-width="0.6" stroke-linejoin="round"/>
    <polygon points="63.6,157.7 80.2,144.7 55.6,130.5 36.5,142.1" fill="#005c69" stroke="#192a42" stroke-width="0.6" stroke-linejoin="round"/>
    <polygon points="117.3,49.7 105.5,20.3 93.8,13.6 102.8,41.4" fill="#00dcfa" stroke="#192a42" stroke-width="0.6" stroke-linejoin="round"/>
    <polygon points="86.2,144.7 102.8,131.7 80.2,144.7 63.6,157.7" fill="#009eb4" stroke="#192a42" stroke-width="0.6" stroke-linejoin="round"/>
    <polygon points="52.5,138.0 34.5,148.5 18.8,157.9 36.9,147.5" fill="#1a4e77" stroke="#192a42" stroke-width="0.6" stroke-linejoin="round"/>
    <polygon points="115.9,116.7 123.2,98.3 103.6,87.0 93.8,103.9" fill="#00dcfa" stroke="#192a42" stroke-width="0.6" stroke-linejoin="round"/>
    <polygon points="59.1,160.3 72.7,149.7 52.5,138.0 36.9,147.5" fill="#3296e6" stroke="#192a42" stroke-width="0.6" stroke-linejoin="round"/>
    <polygon points="93.8,13.6 71.3,26.6 80.2,54.4 102.8,41.4" fill="#007282" stroke="#192a42" stroke-width="0.6" stroke-linejoin="round"/>
    <polygon points="103.6,87.0 81.0,100.0 71.2,116.9 93.8,103.9" fill="#007282" stroke="#192a42" stroke-width="0.6" stroke-linejoin="round"/>
    <polygon points="93.8,13.6 71.3,26.6 82.9,33.4 105.5,20.3" fill="#00c1dc" stroke="#192a42" stroke-width="0.6" stroke-linejoin="round"/>
    <polygon points="41.0,170.8 59.1,160.3 36.9,147.5 18.8,157.9" fill="#113450" stroke="#192a42" stroke-width="0.6" stroke-linejoin="round"/>
    <polygon points="123.7,76.0 117.3,49.7 102.8,41.4 106.5,66.1" fill="#00dcfa" stroke="#192a42" stroke-width="0.6" stroke-linejoin="round"/>
    <polygon points="123.2,98.3 123.7,76.0 106.5,66.1 103.6,87.0" fill="#00dcfa" stroke="#192a42" stroke-width="0.6" stroke-linejoin="round"/>
    <polygon points="102.8,41.4 80.2,54.4 83.9,79.1 106.5,66.1" fill="#007282" stroke="#192a42" stroke-width="0.6" stroke-linejoin="round"/>
    <polygon points="106.5,66.1 83.9,79.1 81.0,100.0 103.6,87.0" fill="#007282" stroke="#192a42" stroke-width="0.6" stroke-linejoin="round"/>
    <polygon points="80.2,144.7 93.3,129.7 71.2,116.9 55.6,130.5" fill="#005c69" stroke="#192a42" stroke-width="0.6" stroke-linejoin="round"/>
    <polygon points="102.8,131.7 115.9,116.7 93.3,129.7 80.2,144.7" fill="#009eb4" stroke="#192a42" stroke-width="0.6" stroke-linejoin="round"/>
    <polygon points="65.3,126.9 47.3,137.3 34.5,148.5 52.5,138.0" fill="#1a4e77" stroke="#192a42" stroke-width="0.6" stroke-linejoin="round"/>
    <polygon points="117.3,49.7 105.5,20.3 82.9,33.4 94.7,62.8" fill="#009eb4" stroke="#192a42" stroke-width="0.6" stroke-linejoin="round"/>
    <polygon points="72.7,149.7 83.5,137.4 65.3,126.9 52.5,138.0" fill="#3296e6" stroke="#192a42" stroke-width="0.6" stroke-linejoin="round"/>
    <polygon points="41.0,170.8 54.7,160.1 34.5,148.5 18.8,157.9" fill="#153f60" stroke="#192a42" stroke-width="0.6" stroke-linejoin="round"/>
    <polygon points="94.7,62.8 82.9,33.4 71.3,26.6 80.2,54.4" fill="#005c69" stroke="#192a42" stroke-width="0.6" stroke-linejoin="round"/>
    <polygon points="84.7,82.5 75.5,58.7 64.8,52.5 72.7,75.6" fill="#3296e6" stroke="#192a42" stroke-width="0.6" stroke-linejoin="round"/>
    <polygon points="59.1,160.3 72.7,149.7 54.7,160.1 41.0,170.8" fill="#246ca5" stroke="#192a42" stroke-width="0.6" stroke-linejoin="round"/>
    <polygon points="115.9,116.7 123.2,98.3 100.7,111.4 93.3,129.7" fill="#009eb4" stroke="#192a42" stroke-width="0.6" stroke-linejoin="round"/>
    <polygon points="93.3,129.7 100.7,111.4 81.0,100.0 71.2,116.9" fill="#005c69" stroke="#192a42" stroke-width="0.6" stroke-linejoin="round"/>
    <polygon points="123.7,76.0 117.3,49.7 94.7,62.8 101.1,89.0" fill="#009eb4" stroke="#192a42" stroke-width="0.6" stroke-linejoin="round"/>
    <polygon points="64.8,52.5 46.7,62.9 54.6,86.0 72.7,75.6" fill="#1a4e77" stroke="#192a42" stroke-width="0.6" stroke-linejoin="round"/>
    <polygon points="83.5,137.4 89.5,122.3 73.4,113.0 65.3,126.9" fill="#3296e6" stroke="#192a42" stroke-width="0.6" stroke-linejoin="round"/>
    <polygon points="73.4,113.0 55.3,123.4 47.3,137.3 65.3,126.9" fill="#1a4e77" stroke="#192a42" stroke-width="0.6" stroke-linejoin="round"/>
    <polygon points="64.8,52.5 46.7,62.9 57.5,69.1 75.5,58.7" fill="#2c84ca" stroke="#192a42" stroke-width="0.6" stroke-linejoin="round"/>
    <polygon points="123.2,98.3 123.7,76.0 101.1,89.0 100.7,111.4" fill="#009eb4" stroke="#192a42" stroke-width="0.6" stroke-linejoin="round"/>
    <polygon points="89.8,104.0 84.7,82.5 72.7,75.6 75.8,95.9" fill="#3296e6" stroke="#192a42" stroke-width="0.6" stroke-linejoin="round"/>
    <polygon points="101.1,89.0 94.7,62.8 80.2,54.4 83.9,79.1" fill="#005c69" stroke="#192a42" stroke-width="0.6" stroke-linejoin="round"/>
    <polygon points="89.5,122.3 89.8,104.0 75.8,95.9 73.4,113.0" fill="#3296e6" stroke="#192a42" stroke-width="0.6" stroke-linejoin="round"/>
    <polygon points="100.7,111.4 101.1,89.0 83.9,79.1 81.0,100.0" fill="#005c69" stroke="#192a42" stroke-width="0.6" stroke-linejoin="round"/>
    <polygon points="72.7,75.6 54.6,86.0 57.7,106.3 75.8,95.9" fill="#1a4e77" stroke="#192a42" stroke-width="0.6" stroke-linejoin="round"/>
    <polygon points="32.0,176.0 42.8,167.5 26.8,158.3 14.4,165.8" fill="#1e50b4" stroke="#192a42" stroke-width="0.6" stroke-linejoin="round"/>
    <polygon points="75.8,95.9 57.7,106.3 55.3,123.4 73.4,113.0" fill="#1a4e77" stroke="#192a42" stroke-width="0.6" stroke-linejoin="round"/>
    <polygon points="26.8,158.3 8.7,168.7 -3.7,176.2 14.4,165.8" fill="#0f295d" stroke="#192a42" stroke-width="0.6" stroke-linejoin="round"/>
    <polygon points="13.9,186.4 32.0,176.0 14.4,165.8 -3.7,176.2" fill="#0a1c3e" stroke="#192a42" stroke-width="0.6" stroke-linejoin="round"/>
    <polygon points="54.7,160.1 65.4,147.8 47.3,137.3 34.5,148.5" fill="#153f60" stroke="#192a42" stroke-width="0.6" stroke-linejoin="round"/>
    <polygon points="72.7,149.7 83.5,137.4 65.4,147.8 54.7,160.1" fill="#246ca5" stroke="#192a42" stroke-width="0.6" stroke-linejoin="round"/>
    <polygon points="84.7,82.5 75.5,58.7 57.5,69.1 66.6,92.9" fill="#246ca5" stroke="#192a42" stroke-width="0.6" stroke-linejoin="round"/>
    <polygon points="66.6,92.9 57.5,69.1 46.7,62.9 54.6,86.0" fill="#153f60" stroke="#192a42" stroke-width="0.6" stroke-linejoin="round"/>
    <polygon points="42.8,167.5 51.3,157.8 36.9,149.5 26.8,158.3" fill="#1e50b4" stroke="#192a42" stroke-width="0.6" stroke-linejoin="round"/>
    <polygon points="36.9,149.5 18.9,159.9 8.7,168.7 26.8,158.3" fill="#0f295d" stroke="#192a42" stroke-width="0.6" stroke-linejoin="round"/>
    <polygon points="83.5,137.4 89.5,122.3 71.4,132.7 65.4,147.8" fill="#246ca5" stroke="#192a42" stroke-width="0.6" stroke-linejoin="round"/>
    <polygon points="65.4,147.8 71.4,132.7 55.3,123.4 47.3,137.3" fill="#153f60" stroke="#192a42" stroke-width="0.6" stroke-linejoin="round"/>
    <polygon points="89.8,104.0 84.7,82.5 66.6,92.9 71.8,114.4" fill="#246ca5" stroke="#192a42" stroke-width="0.6" stroke-linejoin="round"/>
    <polygon points="52.3,114.3 45.7,95.8 35.8,90.1 42.7,108.8" fill="#1e50b4" stroke="#192a42" stroke-width="0.6" stroke-linejoin="round"/>
    <polygon points="89.5,122.3 89.8,104.0 71.8,114.4 71.4,132.7" fill="#246ca5" stroke="#192a42" stroke-width="0.6" stroke-linejoin="round"/>
    <polygon points="71.8,114.4 66.6,92.9 54.6,86.0 57.7,106.3" fill="#153f60" stroke="#192a42" stroke-width="0.6" stroke-linejoin="round"/>
    <polygon points="71.4,132.7 71.8,114.4 57.7,106.3 55.3,123.4" fill="#153f60" stroke="#192a42" stroke-width="0.6" stroke-linejoin="round"/>
    <polygon points="32.0,176.0 42.8,167.5 24.7,178.0 13.9,186.4" fill="#153981" stroke="#192a42" stroke-width="0.6" stroke-linejoin="round"/>
    <polygon points="51.3,157.8 56.1,145.8 43.3,138.5 36.9,149.5" fill="#1e50b4" stroke="#192a42" stroke-width="0.6" stroke-linejoin="round"/>
    <polygon points="13.9,186.4 24.7,178.0 8.7,168.7 -3.7,176.2" fill="#0c214b" stroke="#192a42" stroke-width="0.6" stroke-linejoin="round"/>
    <polygon points="35.8,90.1 17.7,100.5 24.7,119.2 42.7,108.8" fill="#0f295d" stroke="#192a42" stroke-width="0.6" stroke-linejoin="round"/>
    <polygon points="43.3,138.5 25.3,148.9 18.9,159.9 36.9,149.5" fill="#0f295d" stroke="#192a42" stroke-width="0.6" stroke-linejoin="round"/>
    <polygon points="56.4,131.3 52.3,114.3 42.7,108.8 45.2,124.9" fill="#1e50b4" stroke="#192a42" stroke-width="0.6" stroke-linejoin="round"/>
    <polygon points="35.8,90.1 17.7,100.5 27.7,106.2 45.7,95.8" fill="#1a469e" stroke="#192a42" stroke-width="0.6" stroke-linejoin="round"/>
    <polygon points="56.1,145.8 56.4,131.3 45.2,124.9 43.3,138.5" fill="#1e50b4" stroke="#192a42" stroke-width="0.6" stroke-linejoin="round"/>
    <polygon points="42.7,108.8 24.7,119.2 27.2,135.3 45.2,124.9" fill="#0f295d" stroke="#192a42" stroke-width="0.6" stroke-linejoin="round"/>
    <polygon points="45.2,124.9 27.2,135.3 25.3,148.9 43.3,138.5" fill="#0f295d" stroke="#192a42" stroke-width="0.6" stroke-linejoin="round"/>
    <polygon points="42.8,167.5 51.3,157.8 33.3,168.2 24.7,178.0" fill="#153981" stroke="#192a42" stroke-width="0.6" stroke-linejoin="round"/>
    <polygon points="24.7,178.0 33.3,168.2 18.9,159.9 8.7,168.7" fill="#0c214b" stroke="#192a42" stroke-width="0.6" stroke-linejoin="round"/>
    <polygon points="52.3,114.3 45.7,95.8 27.7,106.2 34.3,124.7" fill="#153981" stroke="#192a42" stroke-width="0.6" stroke-linejoin="round"/>
    <polygon points="34.3,124.7 27.7,106.2 17.7,100.5 24.7,119.2" fill="#0c214b" stroke="#192a42" stroke-width="0.6" stroke-linejoin="round"/>
    <polygon points="51.3,157.8 56.1,145.8 38.0,156.3 33.3,168.2" fill="#153981" stroke="#192a42" stroke-width="0.6" stroke-linejoin="round"/>
    <polygon points="56.4,131.3 52.3,114.3 34.3,124.7 38.3,141.7" fill="#153981" stroke="#192a42" stroke-width="0.6" stroke-linejoin="round"/>
    <polygon points="33.3,168.2 38.0,156.3 25.3,148.9 18.9,159.9" fill="#0c214b" stroke="#192a42" stroke-width="0.6" stroke-linejoin="round"/>
    <polygon points="56.1,145.8 56.4,131.3 38.3,141.7 38.0,156.3" fill="#153981" stroke="#192a42" stroke-width="0.6" stroke-linejoin="round"/>
    <polygon points="38.3,141.7 34.3,124.7 24.7,119.2 27.2,135.3" fill="#0c214b" stroke="#192a42" stroke-width="0.6" stroke-linejoin="round"/>
    <polygon points="38.0,156.3 38.3,141.7 27.2,135.3 25.3,148.9" fill="#0c214b" stroke="#192a42" stroke-width="0.6" stroke-linejoin="round"/>
  </g>
  <rect x="4" y="4" width="120" height="120" rx="14" ry="14" fill="none" stroke="#C0C4CC" stroke-width="1.5"/>
</svg>